<svg id="visual" viewBox="0 0 900 600" width="900" height="600" xmlns="http://www.w3.org/2000/svg" xmlns:xlink="http://www.w3.org/1999/xlink" version="1.1"><rect x="0" y="0" width="900" height="600" fill="#f9b6b6"></rect><path d="M0 385L21.5 381.5C43 378 86 371 128.8 371.2C171.7 371.3 214.3 378.7 257.2 385.8C300 393 343 400 385.8 398.3C428.7 396.7 471.3 386.3 514.2 381.8C557 377.3 600 378.7 642.8 376C685.7 373.3 728.3 366.7 771.2 371C814 375.3 857 390.7 878.5 398.3L900 406L900 601L878.5 601C857 601 814 601 771.2 601C728.3 601 685.7 601 642.8 601C600 601 557 601 514.2 601C471.3 601 428.7 601 385.8 601C343 601 300 601 257.2 601C214.3 601 171.7 601 128.8 601C86 601 43 601 21.5 601L0 601Z" fill="#fa7268"></path><path d="M0 403L21.5 403.8C43 404.7 86 406.3 128.8 414C171.7 421.7 214.3 435.3 257.2 445.3C300 455.3 343 461.7 385.8 461.8C428.7 462 471.3 456 514.2 445.3C557 434.7 600 419.3 642.8 419.5C685.7 419.7 728.3 435.3 771.2 437.2C814 439 857 427 878.5 421L900 415L900 601L878.5 601C857 601 814 601 771.2 601C728.3 601 685.7 601 642.8 601C600 601 557 601 514.2 601C471.3 601 428.7 601 385.8 601C343 601 300 601 257.2 601C214.3 601 171.7 601 128.8 601C86 601 43 601 21.5 601L0 601Z" fill="#ef5f67"></path><path d="M0 501L21.5 491.5C43 482 86 463 128.8 460C171.7 457 214.3 470 257.2 471.5C300 473 343 463 385.8 458.8C428.7 454.7 471.3 456.3 514.2 455C557 453.7 600 449.3 642.8 452.7C685.7 456 728.3 467 771.2 466.3C814 465.7 857 453.3 878.5 447.2L900 441L900 601L878.5 601C857 601 814 601 771.2 601C728.3 601 685.7 601 642.8 601C600 601 557 601 514.2 601C471.3 601 428.7 601 385.8 601C343 601 300 601 257.2 601C214.3 601 171.7 601 128.8 601C86 601 43 601 21.5 601L0 601Z" fill="#e34c67"></path><path d="M0 491L21.5 498.2C43 505.3 86 519.7 128.8 525.7C171.7 531.7 214.3 529.3 257.2 527.5C300 525.7 343 524.3 385.8 525.5C428.7 526.7 471.3 530.3 514.2 524C557 517.7 600 501.3 642.8 493C685.7 484.7 728.3 484.3 771.2 491.8C814 499.3 857 514.7 878.5 522.3L900 530L900 601L878.5 601C857 601 814 601 771.2 601C728.3 601 685.7 601 642.8 601C600 601 557 601 514.2 601C471.3 601 428.7 601 385.8 601C343 601 300 601 257.2 601C214.3 601 171.7 601 128.8 601C86 601 43 601 21.5 601L0 601Z" fill="#d53867"></path><path d="M0 550L21.5 546.5C43 543 86 536 128.8 539C171.7 542 214.3 555 257.2 556.5C300 558 343 548 385.8 543.7C428.7 539.3 471.3 540.7 514.2 546.2C557 551.7 600 561.3 642.8 559.3C685.7 557.3 728.3 543.7 771.2 540.8C814 538 857 546 878.5 550L900 554L900 601L878.5 601C857 601 814 601 771.2 601C728.3 601 685.7 601 642.8 601C600 601 557 601 514.2 601C471.3 601 428.7 601 385.8 601C343 601 300 601 257.2 601C214.3 601 171.7 601 128.8 601C86 601 43 601 21.5 601L0 601Z" fill="#c62368"></path></svg>