<svg id="visual" viewBox="0 0 900 600" width="900" height="600" xmlns="http://www.w3.org/2000/svg" xmlns:xlink="http://www.w3.org/1999/xlink" version="1.1"><path d="M0 73L82 61L164 157L245 115L327 121L409 163L491 103L573 73L655 127L736 67L818 157L900 109L900 0L818 0L736 0L655 0L573 0L491 0L409 0L327 0L245 0L164 0L82 0L0 0Z" fill="#00cc8e"></path><path d="M0 145L82 145L164 199L245 163L327 211L409 217L491 181L573 139L655 163L736 145L818 199L900 187L900 107L818 155L736 65L655 125L573 71L491 101L409 161L327 119L245 113L164 155L82 59L0 71Z" fill="#00b98a"></path><path d="M0 337L82 379L164 367L245 307L327 367L409 403L491 379L573 259L655 313L736 355L818 415L900 361L900 185L818 197L736 143L655 161L573 137L491 179L409 215L327 209L245 161L164 197L82 143L0 143Z" fill="#00a784"></path><path d="M0 385L82 499L164 487L245 367L327 469L409 445L491 451L573 319L655 427L736 427L818 475L900 451L900 359L818 413L736 353L655 311L573 257L491 377L409 401L327 365L245 305L164 365L82 377L0 335Z" fill="#00957c"></path><path d="M0 601L82 601L164 601L245 601L327 601L409 601L491 601L573 601L655 601L736 601L818 601L900 601L900 449L818 473L736 425L655 425L573 317L491 449L409 443L327 467L245 365L164 485L82 497L0 383Z" fill="#038373"></path></svg>