<svg id="visual" viewBox="0 0 900 600" width="900" height="600" xmlns="http://www.w3.org/2000/svg" xmlns:xlink="http://www.w3.org/1999/xlink" version="1.1"><rect x="0" y="0" width="900" height="600" fill="#001220"></rect><path d="M0 375L21.5 383.7C43 392.3 86 409.7 128.8 418C171.7 426.3 214.3 425.7 257.2 427.2C300 428.7 343 432.3 385.8 422.3C428.7 412.3 471.3 388.7 514.2 380C557 371.3 600 377.7 642.8 384.7C685.7 391.7 728.3 399.3 771.2 404C814 408.7 857 410.3 878.5 411.2L900 412L900 601L878.5 601C857 601 814 601 771.2 601C728.3 601 685.7 601 642.8 601C600 601 557 601 514.2 601C471.3 601 428.7 601 385.8 601C343 601 300 601 257.2 601C214.3 601 171.7 601 128.8 601C86 601 43 601 21.5 601L0 601Z" fill="#fa7268"></path><path d="M0 442L21.5 438.7C43 435.3 86 428.7 128.8 433.5C171.7 438.3 214.3 454.7 257.2 460.5C300 466.3 343 461.7 385.8 456.8C428.7 452 471.3 447 514.2 442.8C557 438.7 600 435.3 642.8 437.2C685.7 439 728.3 446 771.2 444C814 442 857 431 878.5 425.5L900 420L900 601L878.5 601C857 601 814 601 771.2 601C728.3 601 685.7 601 642.8 601C600 601 557 601 514.2 601C471.3 601 428.7 601 385.8 601C343 601 300 601 257.2 601C214.3 601 171.7 601 128.8 601C86 601 43 601 21.5 601L0 601Z" fill="#ef5f67"></path><path d="M0 490L21.5 488.3C43 486.7 86 483.3 128.8 482.5C171.7 481.7 214.3 483.3 257.2 485.7C300 488 343 491 385.8 485C428.7 479 471.3 464 514.2 460.3C557 456.7 600 464.3 642.8 463.8C685.7 463.3 728.3 454.7 771.2 456.8C814 459 857 472 878.5 478.5L900 485L900 601L878.5 601C857 601 814 601 771.2 601C728.3 601 685.7 601 642.8 601C600 601 557 601 514.2 601C471.3 601 428.7 601 385.8 601C343 601 300 601 257.2 601C214.3 601 171.7 601 128.8 601C86 601 43 601 21.5 601L0 601Z" fill="#e34c67"></path><path d="M0 515L21.5 510.3C43 505.7 86 496.3 128.8 493.5C171.7 490.7 214.3 494.3 257.2 501.5C300 508.7 343 519.3 385.8 519.7C428.7 520 471.3 510 514.2 509.2C557 508.3 600 516.7 642.8 522C685.7 527.3 728.3 529.7 771.2 526.3C814 523 857 514 878.5 509.5L900 505L900 601L878.5 601C857 601 814 601 771.2 601C728.3 601 685.7 601 642.8 601C600 601 557 601 514.2 601C471.3 601 428.7 601 385.8 601C343 601 300 601 257.2 601C214.3 601 171.7 601 128.8 601C86 601 43 601 21.5 601L0 601Z" fill="#d53867"></path><path d="M0 562L21.5 563.5C43 565 86 568 128.8 567.5C171.7 567 214.3 563 257.2 558.7C300 554.3 343 549.7 385.8 545.8C428.7 542 471.3 539 514.2 542.5C557 546 600 556 642.8 556.8C685.7 557.7 728.3 549.3 771.2 542.5C814 535.7 857 530.3 878.5 527.7L900 525L900 601L878.5 601C857 601 814 601 771.2 601C728.3 601 685.7 601 642.8 601C600 601 557 601 514.2 601C471.3 601 428.7 601 385.8 601C343 601 300 601 257.2 601C214.3 601 171.7 601 128.8 601C86 601 43 601 21.5 601L0 601Z" fill="#c62368"></path></svg>